<svg xmlns="http://www.w3.org/2000/svg" xmlns:xlink="http://www.w3.org/1999/xlink" width="500" zoomAndPan="magnify" viewBox="0 0 375 205.499994" height="274" preserveAspectRatio="xMidYMid meet" version="1.0"><defs><clipPath id="id1"><path d="M 113.996094 0 L 238.191406 0 L 238.191406 29.925781 L 113.996094 29.925781 Z M 113.996094 0 " clip-rule="nonzero"/></clipPath><clipPath id="id2"><path d="M 246.460938 0 L 318.285156 0 L 318.285156 29.925781 L 246.460938 29.925781 Z M 246.460938 0 " clip-rule="nonzero"/></clipPath><clipPath id="id3"><path d="M 326.238281 0 L 374.121094 0 L 374.121094 29.925781 L 326.238281 29.925781 Z M 326.238281 0 " clip-rule="nonzero"/></clipPath><clipPath id="id4"><path d="M 0.457031 0 L 105.949219 0 L 105.949219 29.925781 L 0.457031 29.925781 Z M 0.457031 0 " clip-rule="nonzero"/></clipPath><clipPath id="id5"><path d="M 0.457031 43.523438 L 73.027344 43.523438 L 73.027344 73.453125 L 0.457031 73.453125 Z M 0.457031 43.523438 " clip-rule="nonzero"/></clipPath><clipPath id="id6"><path d="M 81.382812 43.523438 L 131.511719 43.523438 L 131.511719 73.453125 L 81.382812 73.453125 Z M 81.382812 43.523438 " clip-rule="nonzero"/></clipPath><clipPath id="id7"><path d="M 139.945312 43.523438 L 264.144531 43.523438 L 264.144531 73.453125 L 139.945312 73.453125 Z M 139.945312 43.523438 " clip-rule="nonzero"/></clipPath><clipPath id="id8"><path d="M 272.574219 43.523438 L 374.328125 43.523438 L 374.328125 73.453125 L 272.574219 73.453125 Z M 272.574219 43.523438 " clip-rule="nonzero"/></clipPath><clipPath id="id9"><path d="M 113.996094 87.613281 L 238.191406 87.613281 L 238.191406 117.539062 L 113.996094 117.539062 Z M 113.996094 87.613281 " clip-rule="nonzero"/></clipPath><clipPath id="id10"><path d="M 246.460938 87.613281 L 289.855469 87.613281 L 289.855469 117.539062 L 246.460938 117.539062 Z M 246.460938 87.613281 " clip-rule="nonzero"/></clipPath><clipPath id="id11"><path d="M 0.457031 86.507812 L 105.949219 86.507812 L 105.949219 116.433594 L 0.457031 116.433594 Z M 0.457031 86.507812 " clip-rule="nonzero"/></clipPath><clipPath id="id12"><path d="M 297.75 87.613281 L 374.066406 87.613281 L 374.066406 117.539062 L 297.75 117.539062 Z M 297.75 87.613281 " clip-rule="nonzero"/></clipPath><clipPath id="id13"><path d="M 0.457031 130.59375 L 123.90625 130.59375 L 123.90625 160.523438 L 0.457031 160.523438 Z M 0.457031 130.59375 " clip-rule="nonzero"/></clipPath><clipPath id="id14"><path d="M 213.296875 130.59375 L 263.425781 130.59375 L 263.425781 160.523438 L 213.296875 160.523438 Z M 213.296875 130.59375 " clip-rule="nonzero"/></clipPath><clipPath id="id15"><path d="M 131.855469 130.59375 L 205.175781 130.59375 L 205.175781 160.523438 L 131.855469 160.523438 Z M 131.855469 130.59375 " clip-rule="nonzero"/></clipPath><clipPath id="id16"><path d="M 271.859375 130.59375 L 373.609375 130.59375 L 373.609375 160.523438 L 271.859375 160.523438 Z M 271.859375 130.59375 " clip-rule="nonzero"/></clipPath><clipPath id="id17"><path d="M 113.996094 174.734375 L 238.191406 174.734375 L 238.191406 204.660156 L 113.996094 204.660156 Z M 113.996094 174.734375 " clip-rule="nonzero"/></clipPath><clipPath id="id18"><path d="M 246.621094 174.734375 L 374.542969 174.734375 L 374.542969 204.660156 L 246.621094 204.660156 Z M 246.621094 174.734375 " clip-rule="nonzero"/></clipPath><clipPath id="id19"><path d="M 52.460938 173.578125 L 105.582031 173.578125 L 105.582031 203.503906 L 52.460938 203.503906 Z M 52.460938 173.578125 " clip-rule="nonzero"/></clipPath><clipPath id="id20"><path d="M 0.457031 173.578125 L 44.597656 173.578125 L 44.597656 203.503906 L 0.457031 203.503906 Z M 0.457031 173.578125 " clip-rule="nonzero"/></clipPath></defs><g clip-path="url(#id1)"><path fill="#0048e8" d="M 223.097656 0 C 231.433594 0 238.191406 6.699219 238.191406 14.964844 C 238.191406 23.226562 231.433594 29.925781 223.097656 29.925781 L 129.089844 29.925781 C 120.753906 29.925781 113.996094 23.226562 113.996094 14.964844 C 113.996094 6.699219 120.753906 0 129.089844 0 L 223.097656 0 " fill-opacity="1" fill-rule="nonzero"/></g><g clip-path="url(#id2)"><path fill="#f4bb30" d="M 303.15625 0 C 311.511719 0 318.285156 6.699219 318.285156 14.964844 C 318.285156 23.226562 311.511719 29.925781 303.15625 29.925781 L 261.589844 29.925781 C 253.234375 29.925781 246.460938 23.226562 246.460938 14.964844 C 246.460938 6.699219 253.234375 0 261.589844 0 L 303.15625 0 " fill-opacity="1" fill-rule="nonzero"/></g><g clip-path="url(#id3)"><path fill="#0da6b9" d="M 359.082031 0 C 367.386719 0 374.121094 6.699219 374.121094 14.964844 C 374.121094 23.226562 367.386719 29.925781 359.082031 29.925781 L 341.28125 29.925781 C 332.972656 29.925781 326.238281 23.226562 326.238281 14.964844 C 326.238281 6.699219 332.972656 0 341.28125 0 L 359.082031 0 " fill-opacity="1" fill-rule="nonzero"/></g><g clip-path="url(#id4)"><path fill="#00cb9f" d="M 90.808594 0 C 99.167969 0 105.945312 6.699219 105.945312 14.964844 C 105.945312 23.226562 99.167969 29.925781 90.808594 29.925781 L 15.597656 29.925781 C 7.234375 29.925781 0.457031 23.226562 0.457031 14.964844 C 0.457031 6.699219 7.234375 0 15.597656 0 L 90.808594 0 " fill-opacity="1" fill-rule="nonzero"/></g><g clip-path="url(#id5)"><path fill="#c1265d" d="M 57.949219 43.523438 C 66.277344 43.523438 73.027344 50.222656 73.027344 58.488281 C 73.027344 66.75 66.277344 73.449219 57.949219 73.449219 L 15.535156 73.449219 C 7.207031 73.449219 0.457031 66.75 0.457031 58.488281 C 0.457031 50.222656 7.207031 43.523438 15.535156 43.523438 L 57.949219 43.523438 " fill-opacity="1" fill-rule="nonzero"/></g><g clip-path="url(#id6)"><path fill="#0048e8" d="M 116.480469 43.523438 C 124.78125 43.523438 131.511719 50.222656 131.511719 58.488281 C 131.511719 66.753906 124.78125 73.453125 116.480469 73.453125 L 96.414062 73.453125 C 88.113281 73.453125 81.382812 66.753906 81.382812 58.488281 C 81.382812 50.222656 88.113281 43.523438 96.414062 43.523438 L 116.480469 43.523438 " fill-opacity="1" fill-rule="nonzero"/></g><g clip-path="url(#id7)"><path fill="#f15c3a" d="M 249.050781 43.523438 C 257.382812 43.523438 264.140625 50.222656 264.140625 58.488281 C 264.140625 66.753906 257.382812 73.453125 249.050781 73.453125 L 155.039062 73.453125 C 146.703125 73.453125 139.949219 66.753906 139.949219 58.488281 C 139.949219 50.222656 146.703125 43.523438 155.039062 43.523438 L 249.050781 43.523438 " fill-opacity="1" fill-rule="nonzero"/></g><g clip-path="url(#id8)"><path fill="#c1265d" d="M 359.207031 43.523438 C 367.558594 43.523438 374.328125 50.222656 374.328125 58.488281 C 374.328125 66.75 367.558594 73.449219 359.207031 73.449219 L 287.695312 73.449219 C 279.34375 73.449219 272.574219 66.75 272.574219 58.488281 C 272.574219 50.222656 279.34375 43.523438 287.695312 43.523438 L 359.207031 43.523438 " fill-opacity="1" fill-rule="nonzero"/></g><g clip-path="url(#id9)"><path fill="#0048e8" d="M 223.097656 87.613281 C 231.433594 87.613281 238.191406 94.3125 238.191406 102.578125 C 238.191406 110.839844 231.433594 117.539062 223.097656 117.539062 L 129.089844 117.539062 C 120.753906 117.539062 113.996094 110.839844 113.996094 102.578125 C 113.996094 94.3125 120.753906 87.613281 129.089844 87.613281 L 223.097656 87.613281 " fill-opacity="1" fill-rule="nonzero"/></g><g clip-path="url(#id10)"><path fill="#00cb9f" d="M 274.652344 87.613281 C 283.046875 87.613281 289.855469 94.3125 289.855469 102.578125 C 289.855469 110.839844 283.046875 117.539062 274.652344 117.539062 L 261.664062 117.539062 C 253.265625 117.539062 246.460938 110.839844 246.460938 102.578125 C 246.460938 94.3125 253.265625 87.613281 261.664062 87.613281 L 274.652344 87.613281 " fill-opacity="1" fill-rule="nonzero"/></g><g clip-path="url(#id11)"><path fill="#c1265d" d="M 90.808594 86.507812 C 99.167969 86.507812 105.945312 93.207031 105.945312 101.46875 C 105.945312 109.734375 99.167969 116.433594 90.808594 116.433594 L 15.597656 116.433594 C 7.234375 116.433594 0.457031 109.734375 0.457031 101.46875 C 0.457031 93.207031 7.234375 86.507812 15.597656 86.507812 L 90.808594 86.507812 " fill-opacity="1" fill-rule="nonzero"/></g><g clip-path="url(#id12)"><path fill="#0da6b9" d="M 359 87.613281 C 367.320312 87.613281 374.066406 94.3125 374.066406 102.578125 C 374.066406 110.839844 367.320312 117.539062 359 117.539062 L 312.816406 117.539062 C 304.496094 117.539062 297.75 110.839844 297.75 102.578125 C 297.75 94.3125 304.496094 87.613281 312.816406 87.613281 L 359 87.613281 " fill-opacity="1" fill-rule="nonzero"/></g><g clip-path="url(#id13)"><path fill="#f15c3a" d="M 108.753906 130.597656 C 117.121094 130.597656 123.90625 137.296875 123.90625 145.558594 C 123.90625 153.824219 117.121094 160.523438 108.753906 160.523438 L 15.605469 160.523438 C 7.238281 160.523438 0.457031 153.824219 0.457031 145.558594 C 0.457031 137.296875 7.238281 130.597656 15.605469 130.597656 L 108.753906 130.597656 " fill-opacity="1" fill-rule="nonzero"/></g><g clip-path="url(#id14)"><path fill="#0048e8" d="M 248.394531 130.59375 C 256.695312 130.59375 263.425781 137.296875 263.425781 145.558594 C 263.425781 153.824219 256.695312 160.523438 248.394531 160.523438 L 228.328125 160.523438 C 220.027344 160.523438 213.296875 153.824219 213.296875 145.558594 C 213.296875 137.296875 220.027344 130.59375 228.328125 130.59375 L 248.394531 130.59375 " fill-opacity="1" fill-rule="nonzero"/></g><g clip-path="url(#id15)"><path fill="#00cb9f" d="M 190.105469 130.59375 C 198.425781 130.59375 205.175781 137.292969 205.175781 145.558594 C 205.175781 153.824219 198.425781 160.523438 190.105469 160.523438 L 146.925781 160.523438 C 138.601562 160.523438 131.855469 153.824219 131.855469 145.558594 C 131.855469 137.292969 138.601562 130.59375 146.925781 130.59375 L 190.105469 130.59375 " fill-opacity="1" fill-rule="nonzero"/></g><g clip-path="url(#id16)"><path fill="#f15c3a" d="M 358.527344 130.59375 C 366.859375 130.59375 373.609375 137.292969 373.609375 145.558594 C 373.609375 153.824219 366.859375 160.523438 358.527344 160.523438 L 286.9375 160.523438 C 278.609375 160.523438 271.859375 153.824219 271.859375 145.558594 C 271.859375 137.292969 278.609375 130.59375 286.9375 130.59375 L 358.527344 130.59375 " fill-opacity="1" fill-rule="nonzero"/></g><g clip-path="url(#id17)"><path fill="#0048e8" d="M 223.097656 174.734375 C 231.433594 174.734375 238.191406 181.433594 238.191406 189.699219 C 238.191406 197.960938 231.433594 204.660156 223.097656 204.660156 L 129.089844 204.660156 C 120.753906 204.660156 113.996094 197.960938 113.996094 189.699219 C 113.996094 181.433594 120.753906 174.734375 129.089844 174.734375 L 223.097656 174.734375 " fill-opacity="1" fill-rule="nonzero"/></g><g clip-path="url(#id18)"><path fill="#f4bb30" d="M 359.410156 174.734375 C 367.777344 174.734375 374.5625 181.433594 374.5625 189.699219 C 374.5625 197.960938 367.777344 204.660156 359.410156 204.660156 L 261.773438 204.660156 C 253.40625 204.660156 246.621094 197.960938 246.621094 189.699219 C 246.621094 181.433594 253.40625 174.734375 261.773438 174.734375 L 359.410156 174.734375 " fill-opacity="1" fill-rule="nonzero"/></g><g clip-path="url(#id19)"><path fill="#0da6b9" d="M 90.539062 173.578125 C 98.847656 173.578125 105.582031 180.277344 105.582031 188.542969 C 105.582031 196.804688 98.847656 203.503906 90.539062 203.503906 L 67.507812 203.503906 C 59.199219 203.503906 52.460938 196.804688 52.460938 188.542969 C 52.460938 180.277344 59.199219 173.578125 67.507812 173.578125 L 90.539062 173.578125 " fill-opacity="1" fill-rule="nonzero"/></g><g clip-path="url(#id20)"><path fill="#f4bb30" d="M 29.386719 173.578125 C 37.789062 173.578125 44.597656 180.277344 44.597656 188.542969 C 44.597656 196.804688 37.789062 203.503906 29.386719 203.503906 L 15.667969 203.503906 C 7.265625 203.503906 0.457031 196.804688 0.457031 188.542969 C 0.457031 180.277344 7.265625 173.578125 15.667969 173.578125 L 29.386719 173.578125 " fill-opacity="1" fill-rule="nonzero"/></g></svg>